<?xml version="1.0" encoding="UTF-8" standalone="no"?>
<!DOCTYPE svg PUBLIC "-//W3C//DTD SVG 1.1//EN" "http://www.w3.org/Graphics/SVG/1.1/DTD/svg11.dtd">
<svg width="100%" height="100%" viewBox="0 0 426 97" version="1.1" xmlns="http://www.w3.org/2000/svg" xmlns:xlink="http://www.w3.org/1999/xlink" xml:space="preserve" xmlns:serif="http://www.serif.com/" style="fill-rule:evenodd;clip-rule:evenodd;stroke-linejoin:round;stroke-miterlimit:2;">
    <g transform="matrix(1,0,0,1,-1248.909586,-139.193221)">
        <g transform="matrix(1,0,0,1,1263.460367,141.732283)">
            <g transform="matrix(100,0,0,100,0,86.328125)">
                <path d="M0.253,-0.035L0.353,-0.285L0.665,-0.285L0.737,-0.465L0.428,-0.465L0.476,-0.598L0.946,-0.598L1.019,-0.777L0.316,-0.777L0.019,-0.035L0.253,-0.035ZM-0.146,0.076L0.241,-0.889L1.184,-0.889L1.021,-0.486L0.554,-0.486L0.587,-0.576L0.902,-0.576L0.74,-0.174L0.428,-0.174L0.328,0.076L-0.146,0.076Z" style="fill-rule:nonzero;"/>
            </g>
            <g transform="matrix(100,0,0,100,87.988281,86.328125)">
                <path d="M0.604,-0.389L0.617,-0.424L0.528,-0.424L0.514,-0.389L0.604,-0.389ZM0.815,-0.035L1.112,-0.777L0.316,-0.777L0.019,-0.035L0.815,-0.035ZM0.35,-0.277L0.453,-0.535L0.781,-0.535L0.679,-0.277L0.35,-0.277ZM-0.146,0.076L0.241,-0.889L1.276,-0.889L0.891,0.076L-0.146,0.076Z" style="fill-rule:nonzero;"/>
            </g>
            <g transform="matrix(100,0,0,100,185.839844,86.328125)">
                <path d="M0.815,-0.035L0.987,-0.465L0.428,-0.465L0.476,-0.598L1.04,-0.598L1.112,-0.777L0.316,-0.777L0.144,-0.348L0.707,-0.348L0.652,-0.215L0.091,-0.215L0.019,-0.035L0.815,-0.035ZM-0.146,0.076L0.016,-0.326L0.578,-0.326L0.541,-0.236L-0.021,-0.236L0.241,-0.889L1.277,-0.889L1.115,-0.486L0.554,-0.486L0.587,-0.576L1.151,-0.576L0.891,0.076L-0.146,0.076Z" style="fill-rule:nonzero;"/>
            </g>
            <g transform="matrix(100,0,0,100,283.691406,86.328125)">
                <path d="M0.815,-0.035L0.987,-0.465L0.428,-0.465L0.476,-0.598L1.04,-0.598L1.112,-0.777L0.316,-0.777L0.144,-0.348L0.707,-0.348L0.652,-0.215L0.091,-0.215L0.019,-0.035L0.815,-0.035ZM-0.146,0.076L0.016,-0.326L0.578,-0.326L0.541,-0.236L-0.021,-0.236L0.241,-0.889L1.277,-0.889L1.115,-0.486L0.554,-0.486L0.587,-0.576L1.151,-0.576L0.891,0.076L-0.146,0.076Z" style="fill-rule:nonzero;"/>
            </g>
        </g>
    </g>
</svg>
