<?xml version="1.0" encoding="UTF-8" standalone="no"?>
<!DOCTYPE svg PUBLIC "-//W3C//DTD SVG 1.1//EN" "http://www.w3.org/Graphics/SVG/1.1/DTD/svg11.dtd">
<svg width="100%" height="100%" viewBox="0 0 723 237" version="1.1" xmlns="http://www.w3.org/2000/svg" xmlns:xlink="http://www.w3.org/1999/xlink" xml:space="preserve" xmlns:serif="http://www.serif.com/" style="fill-rule:evenodd;clip-rule:evenodd;stroke-linejoin:round;stroke-miterlimit:2;">
    <path d="M236.22,0L236.22,236.22L188.976,236.22L188.976,94.488L47.244,236.22L0,236.22L0,188.976L141.732,47.244L0,47.244L0,0L236.22,0Z" style="fill:rgb(255,73,73);"/>
    <path d="M0,70.866L0,165.354L94.488,70.866L0,70.866Z" style="fill:rgb(42,120,255);"/>
    <path d="M165.354,236.22L165.354,141.732L70.866,236.22L165.354,236.22Z" style="fill:rgb(42,120,255);"/>
    <g transform="matrix(1,0,0,1,-5,23.622047)">
        <g transform="matrix(100,0,0,100,259.84252,77.1)">
            <path d="M0.056,-0L0.056,-0.72L0.216,-0.72L0.46,-0.429L0.703,-0.72L0.864,-0.72L0.864,-0L0.708,-0L0.708,-0.483L0.46,-0.187L0.211,-0.482L0.211,-0L0.056,-0Z" style="fill-rule:nonzero;"/>
        </g>
        <g transform="matrix(100,0,0,100,352.64252,77.1)">
            <path d="M0.058,-0L0.058,-0.572C0.058,-0.599 0.065,-0.624 0.078,-0.646C0.091,-0.669 0.109,-0.687 0.132,-0.7C0.154,-0.713 0.179,-0.72 0.206,-0.72L0.629,-0.72C0.656,-0.72 0.681,-0.713 0.703,-0.7C0.726,-0.687 0.744,-0.669 0.758,-0.646C0.771,-0.624 0.778,-0.599 0.778,-0.572L0.778,-0L0.621,-0L0.621,-0.232L0.213,-0.232L0.213,-0L0.058,-0ZM0.213,-0.388L0.621,-0.388L0.621,-0.564L0.213,-0.564L0.213,-0.388Z" style="fill-rule:nonzero;"/>
        </g>
        <g transform="matrix(100,0,0,100,436.24252,77.1)">
            <path d="M0.058,-0L0.058,-0.72L0.629,-0.72C0.656,-0.72 0.681,-0.713 0.703,-0.7C0.726,-0.687 0.744,-0.669 0.758,-0.646C0.771,-0.624 0.778,-0.599 0.778,-0.572L0.778,-0.148C0.778,-0.121 0.771,-0.096 0.758,-0.074C0.744,-0.051 0.726,-0.033 0.703,-0.02C0.681,-0.007 0.656,-0 0.629,-0L0.058,-0ZM0.212,-0.156L0.621,-0.156L0.621,-0.564L0.212,-0.564L0.212,-0.156Z" style="fill-rule:nonzero;"/>
        </g>
        <g transform="matrix(100,0,0,100,519.64252,77.1)">
            <path d="M0.058,-0L0.058,-0.72L0.723,-0.72L0.723,-0.564L0.215,-0.564L0.215,-0.438L0.624,-0.438L0.624,-0.282L0.215,-0.282L0.215,-0.156L0.723,-0.156L0.723,-0L0.058,-0Z" style="fill-rule:nonzero;"/>
        </g>
        <g transform="matrix(100,0,0,100,628.44252,77.1)">
            <rect x="0.031" y="-0.72" width="0.153" height="0.72" style="fill-rule:nonzero;"/>
        </g>
        <g transform="matrix(100,0,0,100,649.84252,77.1)">
            <path d="M0.056,-0L0.056,-0.72L0.216,-0.72L0.619,-0.24L0.619,-0.72L0.776,-0.72L0.776,-0L0.616,-0L0.211,-0.482L0.211,-0L0.056,-0Z" style="fill-rule:nonzero;"/>
        </g>
        <g transform="matrix(100,0,0,100,259.84252,172.933333)">
            <path d="M0.302,-0L0.302,-0.564L0.02,-0.564L0.02,-0.72L0.74,-0.72L0.74,-0.564L0.458,-0.564L0.458,-0L0.302,-0Z" style="fill-rule:nonzero;"/>
        </g>
        <g transform="matrix(100,0,0,100,335.74252,172.933333)">
            <path d="M0.057,-0L0.057,-0.72L0.212,-0.72L0.212,-0.438L0.637,-0.438L0.637,-0.72L0.792,-0.72L0.792,-0L0.637,-0L0.637,-0.282L0.212,-0.282L0.212,-0L0.057,-0Z" style="fill-rule:nonzero;"/>
        </g>
        <g transform="matrix(100,0,0,100,420.84252,172.933333)">
            <path d="M0.058,-0L0.058,-0.72L0.723,-0.72L0.723,-0.564L0.215,-0.564L0.215,-0.438L0.624,-0.438L0.624,-0.282L0.215,-0.282L0.215,-0.156L0.723,-0.156L0.723,-0L0.058,-0Z" style="fill-rule:nonzero;"/>
        </g>
        <g transform="matrix(100,0,0,100,529.64252,172.933333)">
            <path d="M0.202,-0C0.175,-0 0.15,-0.007 0.128,-0.02C0.105,-0.033 0.087,-0.051 0.074,-0.074C0.061,-0.096 0.054,-0.121 0.054,-0.148L0.054,-0.72L0.209,-0.72L0.209,-0.156L0.617,-0.156L0.617,-0.72L0.774,-0.72L0.774,-0.148C0.774,-0.121 0.767,-0.096 0.754,-0.074C0.74,-0.051 0.722,-0.033 0.7,-0.02C0.677,-0.007 0.653,-0 0.626,-0L0.202,-0Z" style="fill-rule:nonzero;"/>
        </g>
        <g transform="matrix(100,0,0,100,612.44252,172.933333)">
            <path d="M0.057,-0L0.057,-0.72L0.213,-0.72L0.213,-0.438L0.354,-0.438L0.59,-0.72L0.752,-0.72L0.752,-0.666L0.495,-0.36L0.752,-0.054L0.752,-0L0.59,-0L0.354,-0.282L0.213,-0.282L0.213,-0L0.057,-0Z" style="fill-rule:nonzero;"/>
        </g>
        <g transform="matrix(20.833333,0,0,20.833333,692.14252,172.933333)">
            <path d="M0.37,-0.728C0.432,-0.728 0.492,-0.712 0.551,-0.68C0.61,-0.649 0.656,-0.603 0.689,-0.544C0.722,-0.485 0.738,-0.424 0.738,-0.359C0.738,-0.296 0.722,-0.235 0.69,-0.176C0.657,-0.118 0.612,-0.072 0.553,-0.04C0.495,-0.007 0.434,0.009 0.37,0.009C0.306,0.009 0.245,-0.007 0.187,-0.04C0.128,-0.072 0.083,-0.118 0.05,-0.176C0.018,-0.235 0.001,-0.296 0.001,-0.359C0.001,-0.424 0.018,-0.485 0.051,-0.544C0.084,-0.603 0.13,-0.649 0.189,-0.68C0.248,-0.712 0.308,-0.728 0.37,-0.728ZM0.37,-0.667C0.318,-0.667 0.268,-0.654 0.219,-0.627C0.17,-0.601 0.132,-0.563 0.104,-0.513C0.076,-0.464 0.062,-0.413 0.062,-0.359C0.062,-0.306 0.076,-0.255 0.103,-0.207C0.13,-0.158 0.168,-0.12 0.217,-0.093C0.266,-0.066 0.317,-0.052 0.37,-0.052C0.423,-0.052 0.474,-0.066 0.523,-0.093C0.572,-0.12 0.61,-0.158 0.637,-0.207C0.664,-0.255 0.677,-0.306 0.677,-0.359C0.677,-0.413 0.663,-0.464 0.636,-0.513C0.608,-0.563 0.57,-0.601 0.521,-0.627C0.472,-0.654 0.422,-0.667 0.37,-0.667ZM0.488,-0.3L0.548,-0.282C0.539,-0.242 0.518,-0.209 0.486,-0.185C0.454,-0.161 0.416,-0.148 0.371,-0.148C0.313,-0.148 0.267,-0.167 0.231,-0.204C0.195,-0.241 0.177,-0.293 0.177,-0.358C0.177,-0.401 0.185,-0.439 0.202,-0.47C0.218,-0.502 0.241,-0.526 0.271,-0.542C0.301,-0.558 0.336,-0.566 0.375,-0.566C0.418,-0.566 0.454,-0.556 0.482,-0.535C0.511,-0.515 0.531,-0.487 0.541,-0.451L0.483,-0.437C0.473,-0.461 0.459,-0.48 0.44,-0.492C0.421,-0.505 0.398,-0.512 0.373,-0.512C0.335,-0.512 0.304,-0.498 0.28,-0.472C0.256,-0.445 0.244,-0.407 0.244,-0.357C0.244,-0.307 0.255,-0.269 0.278,-0.244C0.301,-0.218 0.331,-0.206 0.367,-0.206C0.396,-0.206 0.422,-0.214 0.444,-0.231C0.466,-0.248 0.481,-0.271 0.488,-0.3Z" style="fill-rule:nonzero;"/>
        </g>
    </g>
</svg>
