<?xml version="1.0" encoding="UTF-8" standalone="no"?>
<!-- Created with Inkscape (http://www.inkscape.org/) -->

<svg
   width="1024"
   height="512"
   viewBox="0 0 1024 511.99998"
   version="1.1"
   id="svg1"
   inkscape:version="1.3.2 (091e20e, 2023-11-25)"
   sodipodi:docname="logo.svg"
   xmlns:inkscape="http://www.inkscape.org/namespaces/inkscape"
   xmlns:sodipodi="http://sodipodi.sourceforge.net/DTD/sodipodi-0.dtd"
   xmlns="http://www.w3.org/2000/svg"
   xmlns:svg="http://www.w3.org/2000/svg">
  <sodipodi:namedview
     id="namedview1"
     pagecolor="#000000"
     bordercolor="#000000"
     borderopacity="0.25"
     inkscape:showpageshadow="2"
     inkscape:pageopacity="0.0"
     inkscape:pagecheckerboard="0"
     inkscape:deskcolor="#d1d1d1"
     inkscape:document-units="px"
     inkscape:zoom="0.75458143"
     inkscape:cx="610.27211"
     inkscape:cy="275.64951"
     inkscape:window-width="1800"
     inkscape:window-height="1103"
     inkscape:window-x="0"
     inkscape:window-y="38"
     inkscape:window-maximized="1"
     inkscape:current-layer="layer1" />
  <defs
     id="defs1" />
  <g
     inkscape:label="Layer 1"
     inkscape:groupmode="layer"
     id="layer1">
    <text
       xml:space="preserve"
       style="font-style:normal;font-variant:normal;font-weight:bold;font-stretch:normal;font-size:165.278px;line-height:1.1;font-family:Orbitron;-inkscape-font-specification:'Orbitron Bold';text-align:center;text-anchor:middle;display:none;fill:#4a95ec;fill-opacity:1;stroke:none;stroke-width:10;stroke-dasharray:none;stroke-opacity:1;paint-order:markers stroke fill"
       x="268.51245"
       y="456.47513"
       id="text21"
       inkscape:label="lower"><tspan
         sodipodi:role="line"
         x="268.51245"
         y="456.47513"
         style="fill:#4a95ec;fill-opacity:1;stroke-width:10"
         id="tspan28">.dev</tspan></text>
    <path
       d="m 36.75985,374.56018 v 0 -8.50307 L 138.63299,252.23788 86.885677,191.50159 v -8.50309 h 34.498233 l 37.89942,44.70191 85.41479,-93.53403 h 34.49823 v 8.50307 l -99.26266,109.56843 51.74732,63.16576 v 8.50307 h -34.25529 l -38.14239,-46.64548 -88.025254,97.29895 z"
       id="path21-3"
       style="font-weight:bold;font-size:146.048px;line-height:1.1;font-family:Orbitron;-inkscape-font-specification:'Orbitron Bold';text-align:center;text-anchor:middle;display:inline;fill:#e5e5e5;fill-opacity:1;stroke-width:9.99997;paint-order:markers stroke fill"
       aria-label="0x4248"
       sodipodi:nodetypes="cccccccccccccccccc"
       inkscape:label="X" />
    <text
       xml:space="preserve"
       style="font-style:normal;font-variant:normal;font-weight:bold;font-stretch:normal;font-size:243.308px;line-height:1.1;font-family:Arial;-inkscape-font-specification:'Arial Bold';text-align:end;text-anchor:end;display:none;fill:#e5e5e5;fill-opacity:1;stroke:none;stroke-width:9.99995;stroke-dasharray:none;stroke-opacity:1;paint-order:markers stroke fill"
       x="999.24969"
       y="326.83789"
       id="text1"
       transform="scale(1.0112213,0.98890323)"
       inkscape:label="4248"><tspan
         sodipodi:role="line"
         id="tspan1"
         x="999.24969"
         y="326.83789"
         style="font-style:normal;font-variant:normal;font-weight:bold;font-stretch:normal;font-family:Orbitron;-inkscape-font-specification:'Orbitron Bold';fill:#e5e5e5;fill-opacity:1;stroke-width:9.99995">4248</tspan></text>
    <path
       d="m 86.67114,456.47513 v 0 -21.65142 h 21.65142 v 21.65142 z m 55.20273,0 q -6.44584,0 -11.56946,-3.14028 -5.12362,-3.14029 -8.2639,-8.2639 -2.975,-5.12362 -2.975,-11.40419 v -50.24451 q 0,-6.28056 2.975,-11.40418 3.14028,-5.12362 8.2639,-8.2639 5.12362,-3.14028 11.56946,-3.14028 h 53.05424 v -31.40282 h 21.65142 v 127.26406 h -74.70566 z m 0.99167,-21.65142 h 50.07923 q 0.82639,0 1.32223,-0.49583 0.66111,-0.66112 0.66111,-1.48751 v -48.59173 q 0,-0.82639 -0.66111,-1.32222 -0.49584,-0.66111 -1.32223,-0.66111 h -50.07923 q -0.82639,0 -1.4875,0.66111 -0.49584,0.49583 -0.49584,1.32222 v 48.59173 q 0,0.82639 0.49584,1.48751 0.66111,0.49583 1.4875,0.49583 z m 110.22915,21.65142 q -6.28056,0 -11.40418,-3.14028 -5.12362,-3.14029 -8.2639,-8.2639 -3.14028,-5.12362 -3.14028,-11.40419 v -50.24451 q 0,-6.28056 3.14028,-11.40418 3.14028,-5.12362 8.2639,-8.2639 5.12362,-3.14028 11.40418,-3.14028 h 51.73202 q 6.28056,0 11.40418,3.14028 5.28889,3.14028 8.2639,8.2639 3.14028,5.12362 3.14028,11.40418 v 36.03061 h -75.69732 v 13.38751 q 0,0.82639 0.49583,1.48751 0.66111,0.49583 1.4875,0.49583 h 73.71399 v 21.65142 h -74.54038 z m -1.15694,-56.52508 h 54.0459 v -15.70141 q 0,-0.82639 -0.66111,-1.32222 -0.49583,-0.66111 -1.32222,-0.66111 h -50.07924 q -0.82639,0 -1.4875,0.66111 -0.49583,0.49583 -0.49583,1.32222 z m 132.96577,56.52508 v 0 l -52.72368,-95.86124 h 24.95698 l 37.84866,69.58204 37.68339,-69.58204 h 24.95697 l -52.88896,95.86124 z"
       id="text2"
       style="font-weight:bold;font-size:165.278px;line-height:1.1;font-family:Orbitron;-inkscape-font-specification:'Orbitron Bold';text-align:center;text-anchor:middle;fill:#4a95ec;stroke-width:10;paint-order:markers stroke fill"
       inkscape:label="lower"
       aria-label=".dev" />
    <path
       style="font-weight:bold;font-size:243.308px;line-height:1.1;font-family:Orbitron;-inkscape-font-specification:'Orbitron Bold';text-align:end;text-anchor:end;fill:#e5e5e5;stroke-width:9.99995;paint-order:markers stroke fill"
       d="m 350.83421,326.83789 v 0 -44.03875 H 240.61569 V 252.87226 L 352.78067,151.65613 h 29.92689 v 99.02636 h 24.5741 v 32.11665 h -24.5741 v 44.03875 z m -60.58369,-76.1554 v 0 h 60.58369 v -50.60807 z m 140.3886,76.1554 v 0 -67.15301 q 0,-9.48901 4.62286,-17.03156 4.62285,-7.54254 12.1654,-11.92209 7.54254,-4.62285 16.78825,-4.62285 h 105.10905 q 1.21654,0 1.94647,-0.72992 0.97323,-0.97324 0.97323,-2.18978 v -36.7395 q 0,-1.21654 -0.97323,-1.94647 -0.72993,-0.97323 -1.94647,-0.97323 H 465.43217 q -1.21654,0 -2.18977,0.97323 -0.72993,0.72993 -0.72993,1.94647 v 11.92209 h -31.87335 v -13.13863 q 0,-9.48902 4.62286,-17.03156 4.62285,-7.54255 12.1654,-11.9221 7.54254,-4.62285 16.78825,-4.62285 h 106.32559 q 9.24571,0 16.78826,4.62285 7.78585,4.37955 12.1654,11.9221 4.62285,7.54254 4.62285,17.03156 v 39.41589 q 0,9.0024 -4.62285,16.78825 -4.37955,7.54255 -12.1654,12.1654 -7.54255,4.62286 -16.78826,4.62286 H 465.43217 q -1.21654,0 -2.18977,0.97323 -0.72993,0.72992 -0.72993,1.94646 v 30.90012 q 0,1.21654 0.72993,2.18977 0.97323,0.72992 2.18977,0.72992 h 138.68556 v 31.87335 z m 299.75545,0 v 0 -44.03875 H 620.17605 V 252.87226 L 732.34104,151.65613 h 29.92688 v 99.02636 h 24.57411 v 32.11665 h -24.57411 v 44.03875 z m -60.58369,-76.1554 v 0 h 60.58369 v -50.60807 z m 173.96507,76.1554 q -9.24571,0 -16.78826,-4.62285 -7.54254,-4.62285 -12.1654,-12.1654 -4.62285,-7.54255 -4.62285,-16.78825 v -38.19936 q 0,-4.37954 1.45985,-8.75909 1.45985,-4.62285 3.64962,-8.75908 -2.18977,-4.13624 -3.64962,-8.51578 -1.45985,-4.62286 -1.45985,-9.24571 v -34.54973 q 0,-9.48902 4.62285,-17.03156 4.62286,-7.54255 12.1654,-11.9221 7.54255,-4.62285 16.78826,-4.62285 h 106.32559 q 8.02917,0 15.0851,3.64962 7.05593,3.64962 11.92209,9.97563 5.10947,6.32601 6.56932,13.86856 v 40.63243 q 0,9.0024 -5.10947,17.76149 5.10947,8.02916 5.10947,17.51817 v 38.19936 q 0,9.2457 -4.62286,16.78825 -4.62285,7.54255 -12.1654,12.1654 -7.54254,4.62285 -16.78825,4.62285 H 843.77595 Z m 1.21654,-31.87335 v 0 H 948.885 q 1.21654,0 1.94647,-0.72992 0.97323,-0.97323 0.97323,-2.18977 v -35.52297 q 0,-1.21654 -0.97323,-1.94646 -0.72993,-0.97324 -1.94647,-0.97324 H 844.99249 q -1.21654,0 -2.18978,0.97324 -0.72992,0.72992 -0.72992,1.94646 v 35.52297 q 0,1.21654 0.72992,2.18977 0.97324,0.72992 2.18978,0.72992 z m 0,-70.80262 v 0 H 948.885 q 1.21654,0 1.94647,-0.97324 0.97323,-0.97323 0.97323,-1.94646 v -34.54974 q 0,-1.21654 -0.97323,-1.94646 -0.72993,-0.97323 -1.94647,-0.97323 H 844.99249 q -1.21654,0 -2.18978,0.97323 -0.72992,0.72992 -0.72992,1.94646 v 34.54974 q 0,0.97323 0.72992,1.94646 0.97324,0.97324 2.18978,0.97324 z"
       id="text3"
       inkscape:label="4248"
       transform="scale(1.0112213,0.98890323)"
       aria-label="4248" />
  </g>
</svg>
