<?xml version="1.0" standalone="no"?>
<!DOCTYPE svg PUBLIC "-//W3C//DTD SVG 20010904//EN"
 "http://www.w3.org/TR/2001/REC-SVG-20010904/DTD/svg10.dtd">
<svg version="1.0" xmlns="http://www.w3.org/2000/svg"
 width="460.000000pt" height="460.000000pt" viewBox="0 0 460.000000 460.000000"
 preserveAspectRatio="xMidYMid meet">
<metadata>
Created by potrace 1.14, written by Peter Selinger 2001-2017
</metadata>
<g transform="translate(0.000000,460.000000) scale(0.100000,-0.100000)"
fill="#000000" stroke="none">
<path d="M0 2300 l0 -2300 2300 0 2300 0 0 2300 0 2300 -2300 0 -2300 0 0
-2300z m2300 1640 c0 -30 -1 -30 -55 -30 -54 0 -55 0 -55 -30 l0 -30 -60 0
-60 0 0 -30 c0 -25 -4 -30 -24 -30 -19 0 -25 -6 -28 -27 -3 -24 -8 -28 -33
-28 -27 0 -30 3 -30 30 0 25 4 30 28 33 21 3 27 9 27 28 0 20 5 24 30 24 27 0
30 3 30 30 0 30 1 30 55 30 51 0 55 2 55 23 0 33 7 37 67 37 52 0 53 0 53 -30z
m-230 -400 c0 -27 3 -30 30 -30 l30 0 0 -115 0 -115 55 0 54 0 3 113 3 112 28
3 c23 3 27 8 27 33 l0 30 88 -3 c87 -3 87 -3 90 -30 3 -22 9 -28 28 -28 l24 0
0 -145 0 -145 -30 0 c-27 0 -30 -3 -30 -30 l0 -30 60 0 60 0 0 -55 c0 -54 0
-55 -30 -55 -27 0 -30 -3 -30 -30 0 -27 3 -30 30 -30 30 0 30 -1 30 -54 0 -52
1 -55 28 -58 26 -3 27 -6 30 -60 3 -57 4 -58 32 -58 l30 0 0 -85 c0 -84 0 -85
25 -85 25 0 25 -1 25 -85 l0 -85 30 0 c27 0 30 -3 30 -29 0 -25 4 -30 28 -33
27 -3 27 -4 30 -85 3 -81 3 -82 30 -85 27 -3 27 -4 30 -90 l3 -88 -31 0 -30 0
0 -85 0 -85 -30 0 c-27 0 -30 -3 -30 -30 0 -27 3 -30 30 -30 30 0 30 -1 30
-54 0 -52 1 -55 28 -58 21 -2 28 -9 30 -30 l3 -28 109 0 109 0 3 28 c2 21 9
28 31 30 23 3 27 8 27 33 l0 30 58 -3 c54 -3 57 -5 60 -30 3 -21 9 -27 30 -30
21 -2 28 -9 30 -30 3 -22 9 -28 28 -28 24 0 24 -1 24 -90 l0 -90 30 0 c30 0
30 -1 30 -55 0 -52 1 -55 25 -55 24 0 25 -3 25 -55 0 -52 -1 -55 -25 -55 -21
0 -25 -5 -25 -30 l0 -30 -60 0 -60 0 0 -30 c0 -30 -1 -30 -55 -30 -52 0 -55
-1 -55 -25 0 -21 -5 -25 -30 -25 -27 0 -30 -3 -30 -29 0 -25 -4 -30 -27 -33
-22 -2 -29 -9 -31 -30 -3 -24 -8 -28 -33 -28 -26 0 -29 -3 -29 -30 0 -25 -4
-30 -25 -30 -20 0 -25 -5 -25 -25 l0 -25 -145 0 -145 0 0 25 c0 21 -5 25 -30
25 -27 0 -30 3 -30 30 0 27 -3 30 -30 30 l-30 0 0 85 0 85 30 0 30 0 0 91 0
90 -27 -3 c-22 -2 -29 -9 -31 -31 -3 -21 -9 -27 -28 -27 -20 0 -24 -5 -24 -30
l0 -30 -90 0 -90 0 0 -30 0 -30 -170 0 -170 0 0 30 0 30 -60 0 c-57 0 -60 1
-60 25 0 20 -5 25 -25 25 -24 0 -25 -3 -25 -55 0 -52 1 -55 25 -55 25 0 25 -1
25 -85 0 -84 0 -85 -25 -85 -21 0 -25 -5 -25 -30 l0 -30 -200 0 -200 0 0 30 0
30 -84 0 -85 0 -3 27 -3 28 -142 0 -142 -1 -3 31 c-2 24 -8 31 -30 33 l-28 3
0 230 0 229 25 0 c20 0 25 5 25 25 0 24 3 25 60 25 l60 0 0 30 c0 27 3 30 30
30 27 0 30 3 30 30 0 25 4 30 24 30 19 0 25 6 28 28 2 21 9 28 31 30 21 3 27
9 27 28 0 24 1 24 90 24 89 0 90 0 90 -24 0 -19 6 -25 28 -28 21 -2 28 -9 30
-30 3 -22 9 -28 28 -28 23 0 24 -3 24 -60 l0 -60 30 0 c30 0 30 -1 30 -54 0
-52 1 -55 28 -58 26 -3 27 -6 30 -60 3 -54 5 -58 27 -58 18 0 24 -6 27 -27 2
-22 9 -29 31 -31 24 -3 27 0 27 27 0 31 0 31 55 31 l55 0 0 85 c0 84 0 85 -25
85 -21 0 -25 5 -25 30 0 27 -3 30 -30 30 -27 0 -30 3 -30 30 0 27 -3 30 -30
30 -25 0 -30 4 -30 25 0 24 -3 25 -55 25 -54 0 -55 0 -55 30 0 27 -3 30 -30
30 -27 0 -30 3 -30 30 0 25 -4 30 -25 30 -21 0 -25 5 -25 30 0 25 4 30 25 30
l25 0 0 145 0 145 30 0 30 0 0 85 c0 83 0 85 24 85 19 0 25 6 28 28 2 21 9 28
31 30 l27 3 0 85 0 84 30 0 30 0 0 85 0 85 30 0 30 0 0 90 c0 89 0 90 25 90
20 0 25 5 25 25 0 21 5 25 30 25 27 0 30 3 30 30 0 27 -3 30 -30 30 -25 0 -30
4 -30 25 0 20 -5 25 -25 25 -24 0 -25 3 -25 60 0 57 1 60 25 60 21 0 25 5 25
30 0 25 -4 30 -25 30 l-25 0 0 145 0 145 25 0 c20 0 25 5 25 23 0 33 7 37 67
37 52 0 53 0 53 -30z"/>
<path d="M1960 3335 l0 -115 24 0 c19 0 25 6 28 28 2 21 9 28 31 30 26 3 27 6
27 58 0 53 0 54 -30 54 -27 0 -30 3 -30 30 0 25 -4 30 -25 30 l-25 0 0 -115z"/>
<path d="M2300 3365 l0 -84 58 -3 c54 -3 57 -4 60 -30 3 -22 9 -28 28 -28 24
0 24 2 24 85 l0 85 -30 0 c-27 0 -30 3 -30 30 0 30 -1 30 -55 30 l-55 0 0 -85z"/>
<path d="M2420 3070 l0 -30 -60 0 c-57 0 -60 -1 -60 -25 l0 -25 -115 0 -115 0
0 25 c0 20 -5 25 -25 25 -20 0 -25 -5 -25 -25 0 -20 5 -25 25 -25 21 0 25 -5
25 -30 0 -25 -4 -30 -25 -30 -20 0 -25 -5 -25 -25 0 -20 5 -25 25 -25 21 0 25
-5 25 -30 l0 -30 115 0 115 0 0 30 c0 30 1 30 55 30 52 0 55 1 55 25 0 24 3
25 60 25 l60 0 0 30 c0 30 -1 30 -55 30 -52 0 -55 2 -55 24 0 19 6 25 28 28
21 2 28 9 30 31 3 24 0 27 -27 27 -28 0 -31 -3 -31 -30z m-10 -110 c0 -30 -1
-30 -55 -30 -52 0 -55 -1 -55 -25 l0 -25 -115 0 -115 0 0 25 0 25 115 0 115 0
0 30 c0 30 1 30 55 30 54 0 55 0 55 -30z"/>
<path d="M2760 1755 c0 -21 5 -25 30 -25 25 0 30 4 30 25 0 21 -5 25 -30 25
-25 0 -30 -4 -30 -25z"/>
<path d="M2710 1662 c0 -33 -3 -134 -7 -225 l-6 -167 31 0 32 0 0 225 0 225
-25 0 c-24 0 -25 -3 -25 -58z"/>
<path d="M1840 1230 c0 -27 3 -30 30 -30 27 0 30 3 30 30 0 27 -3 30 -30 30
-27 0 -30 -3 -30 -30z"/>
</g>
</svg>
